<?xml version="1.0" encoding="UTF-8"?>
<svg width="16px" height="16px" viewBox="0 0 16 16" version="1.1" xmlns="http://www.w3.org/2000/svg" xmlns:xlink="http://www.w3.org/1999/xlink">
    <!-- Generator: Sketch 59.1 (86144) - https://sketch.com -->
    <title>Icon/16/cancel-blue</title>
    <desc>Created with Sketch.</desc>
    <g id="Symbols" stroke="none" stroke-width="1" fill="none" fill-rule="evenodd">
        <g id="Icon/16/cancel-blue" fill="#0E1436" fill-rule="nonzero">
            <path d="M15.6450512,0.367083807 C15.1717861,-0.106181267 14.407281,-0.106181267 13.9340159,0.367083807 L8,6.28896473 L2.06598407,0.354948805 C1.592719,-0.118316268 0.828213879,-0.118316268 0.354948805,0.354948805 C-0.118316268,0.828213879 -0.118316268,1.592719 0.354948805,2.06598407 L6.28896473,8 L0.354948805,13.9340159 C-0.118316268,14.407281 -0.118316268,15.1717861 0.354948805,15.6450512 C0.828213879,16.1183163 1.592719,16.1183163 2.06598407,15.6450512 L8,9.71103527 L13.9340159,15.6450512 C14.407281,16.1183163 15.1717861,16.1183163 15.6450512,15.6450512 C16.1183163,15.1717861 16.1183163,14.407281 15.6450512,13.9340159 L9.71103527,8 L15.6450512,2.06598407 C16.1061813,1.604854 16.1061813,0.828213879 15.6450512,0.367083807 Z" id="Path"></path>
        </g>
    </g>
</svg>