<?xml version="1.0" encoding="UTF-8"?>
<svg width="16px" height="16px" viewBox="0 0 16 16" version="1.1" xmlns="http://www.w3.org/2000/svg" xmlns:xlink="http://www.w3.org/1999/xlink">
    <!-- Generator: Sketch 59.1 (86144) - https://sketch.com -->
    <title>Icon/16/Claim as owner</title>
    <desc>Created with Sketch.</desc>
    <g id="Symbols" stroke="none" stroke-width="1" fill="none" fill-rule="evenodd">
        <g id="Icon/16/Claim-as-owner">
            <g id="vpn_key-24px-(1)">
                <polygon id="Path" points="0 0 16 0 16 16 0 16"></polygon>
                <path d="M13.6666667,12.6666667 L11.6666667,12.6666667 C11.1143819,12.6666667 10.6666667,12.2189514 10.6666667,11.6666667 L10.6666667,10 L10.6666667,10 L8.88,10 C8.12,11.6133333 6.48,12.6666667 4.66666667,12.6666667 C2.09333333,12.6666667 0,10.5733333 0,8 C0,5.42666667 2.09333333,3.33333333 4.66666667,3.33333333 C6.48,3.33333333 8.11333333,4.38666667 8.88,6 L15,6 C15.5522847,6 16,6.44771525 16,7 L16,9 C16,9.55228475 15.5522847,10 15,10 L14.6666667,10 L14.6666667,10 L14.6666667,11.6666667 C14.6666667,12.2189514 14.2189514,12.6666667 13.6666667,12.6666667 Z M12,11.3333333 L13.3333333,11.3333333 L13.3333333,8.66666667 L14.6666667,8.66666667 L14.6666667,7.33333333 L7.96,7.33333333 L7.80666667,6.88666667 C7.34,5.56 6.07333333,4.66666667 4.66666667,4.66666667 C2.82666667,4.66666667 1.33333333,6.16 1.33333333,8 C1.33333333,9.84 2.82666667,11.3333333 4.66666667,11.3333333 C6.07333333,11.3333333 7.34,10.44 7.80666667,9.11333333 L7.96,8.66666667 L12,8.66666667 L12,11.3333333 Z M4.66666667,10 C3.56666667,10 2.66666667,9.1 2.66666667,8 C2.66666667,6.9 3.56666667,6 4.66666667,6 C5.76666667,6 6.66666667,6.9 6.66666667,8 C6.66666667,9.1 5.76666667,10 4.66666667,10 Z M4.66666667,7.33333333 C4.3,7.33333333 4,7.63333333 4,8 C4,8.36666667 4.3,8.66666667 4.66666667,8.66666667 C5.03333333,8.66666667 5.33333333,8.36666667 5.33333333,8 C5.33333333,7.63333333 5.03333333,7.33333333 4.66666667,7.33333333 Z" id="Shape" fill="#0E1436" fill-rule="nonzero"></path>
            </g>
        </g>
    </g>
</svg>