<?xml version="1.0" encoding="UTF-8"?>
<svg width="16px" height="16px" viewBox="0 0 16 16" version="1.1" xmlns="http://www.w3.org/2000/svg" xmlns:xlink="http://www.w3.org/1999/xlink">
    <!-- Generator: Sketch 59.1 (86144) - https://sketch.com -->
    <title>Icon/16/?</title>
    <desc>Created with Sketch.</desc>
    <g id="Symbols" stroke="none" stroke-width="1" fill="none" fill-rule="evenodd">
        <g id="Icon/16/?" fill="#B2B7C6" fill-rule="nonzero">
            <path d="M7.99530679,2 C4.68291335,2 2,4.68291335 2,7.99530679 C2,11.3077002 4.68291335,13.9906136 7.99530679,13.9906136 C11.3077002,13.9906136 13.9906417,11.3077283 13.9906417,7.99530679 C13.9906417,4.68288525 11.3077283,2 7.99530679,2 Z M8.59485714,12.1920468 L7.39578454,12.1920468 L7.39578454,10.9929742 L8.59485714,10.9929742 L8.59485714,12.1920468 Z M9.83288056,7.54866511 L9.29630913,8.10024356 C8.86464637,8.53190632 8.59485714,8.89463232 8.59485714,9.79392974 L7.39578454,9.79392974 L7.39578454,9.49415457 C7.39578454,8.8316815 7.66557377,8.23213115 8.09723653,7.79748946 L8.8436534,7.04207963 C9.05948478,6.82624824 9.19437939,6.52647307 9.19437939,6.19674005 C9.19437939,5.53426698 8.65780796,4.99766745 7.99530679,4.99766745 C7.33280562,4.99766745 6.79623419,5.53423888 6.79623419,6.19674005 L5.5971897,6.19674005 C5.5971897,4.87176581 6.67036066,3.79859485 7.99530679,3.79859485 C9.32025293,3.79859485 10.3934239,4.87176581 10.3934239,6.19671194 C10.3934239,6.7243185 10.1805995,7.20094614 9.83288056,7.54866511 Z" id="Shape"></path>
        </g>
    </g>
</svg>