<?xml version="1.0" encoding="UTF-8"?>
<svg width="24px" height="24px" viewBox="0 0 24 24" version="1.1" xmlns="http://www.w3.org/2000/svg" xmlns:xlink="http://www.w3.org/1999/xlink">
    <!-- Generator: Sketch 59.1 (86144) - https://sketch.com -->
    <title>Icons/24/Share</title>
    <desc>Created with Sketch.</desc>
    <g id="Symbols" stroke="none" stroke-width="1" fill="none" fill-rule="evenodd">
        <g id="Icons/24/Share">
            <g id="Icon">
                <path d="M17.0470588,15.3161788 C16.4366871,15.3161788 15.8865129,15.5530918 15.4688941,15.9346071 L9.74654118,12.5975718 C9.79070118,12.4168659 9.81882353,12.2281412 9.81882353,12.0353882 C9.81882353,11.8426353 9.79070118,11.6539106 9.74654118,11.4732047 L15.4086588,8.16828235 C15.8383247,8.56986353 16.4125929,8.81882353 17.0470588,8.81882353 C18.3762635,8.81882353 19.4564706,7.73861647 19.4564706,6.40941176 C19.4564706,5.08020706 18.3762635,4 17.0470588,4 C15.7178541,4 14.6376471,5.08020706 14.6376471,6.40941176 C14.6376471,6.60216471 14.6657694,6.79088941 14.7099294,6.97159529 L9.04781176,10.27648 C8.61814588,9.87489882 8.04387765,9.62593882 7.40941176,9.62593882 C6.08020706,9.62593882 5,10.7061459 5,12.0353506 C5,13.3645553 6.08020706,14.4447624 7.40941176,14.4447624 C8.04387765,14.4447624 8.61814588,14.1958024 9.04781176,13.7942212 L14.7701647,17.1312565 C14.7299953,17.2999153 14.7059012,17.4765929 14.7059012,17.6572988 C14.7059012,18.9503624 15.7539953,19.9984565 17.0470588,19.9984565 C18.3401224,19.9984565 19.3882165,18.9503624 19.3882165,17.6572988 C19.3882165,16.3642353 18.3401224,15.3161788 17.0470588,15.3161788 Z" id="Path" fill="#0E1436" fill-rule="nonzero"></path>
                <polygon id="Path" points="24 0 24 24 0 24 0 0"></polygon>
            </g>
        </g>
    </g>
</svg>